<mxfile host="app.diagrams.net" modified="2023-12-18T09:47:05.169Z" agent="Mozilla/5.0 (Windows NT 10.0; Win64; x64) AppleWebKit/537.36 (KHTML, like Gecko) Chrome/120.0.0.0 Safari/537.36 Edg/120.0.0.0" etag="U4TDH1yI6JcU7xCTdGhT" version="22.1.11" type="device">
  <diagram name="Page-1" id="jJFzMC4zHu6kHTRllQfJ">
    <mxGraphModel dx="1042" dy="569" grid="1" gridSize="10" guides="1" tooltips="1" connect="1" arrows="1" fold="1" page="1" pageScale="1" pageWidth="850" pageHeight="1100" background="#FFFFFF" math="0" shadow="0">
      <root>
        <mxCell id="0" />
        <mxCell id="1" parent="0" />
        <mxCell id="njCDBM8VA2MCAohA0fPo-33" style="edgeStyle=orthogonalEdgeStyle;rounded=0;orthogonalLoop=1;jettySize=auto;html=1;exitX=0.5;exitY=1;exitDx=0;exitDy=0;" edge="1" parent="1" source="njCDBM8VA2MCAohA0fPo-1" target="njCDBM8VA2MCAohA0fPo-32">
          <mxGeometry relative="1" as="geometry" />
        </mxCell>
        <mxCell id="njCDBM8VA2MCAohA0fPo-1" value="&lt;font style=&quot;font-size: 23px;&quot;&gt;USER&lt;/font&gt;" style="rounded=0;whiteSpace=wrap;html=1;" vertex="1" parent="1">
          <mxGeometry x="170" y="210" width="120" height="60" as="geometry" />
        </mxCell>
        <mxCell id="njCDBM8VA2MCAohA0fPo-2" value="&lt;font style=&quot;font-size: 20px;&quot;&gt;id&lt;/font&gt;" style="ellipse;whiteSpace=wrap;html=1;" vertex="1" parent="1">
          <mxGeometry x="40" y="110" width="80" height="30" as="geometry" />
        </mxCell>
        <mxCell id="njCDBM8VA2MCAohA0fPo-3" value="" style="endArrow=none;html=1;rounded=0;exitX=1;exitY=1;exitDx=0;exitDy=0;entryX=0.447;entryY=-0.027;entryDx=0;entryDy=0;entryPerimeter=0;" edge="1" parent="1" source="njCDBM8VA2MCAohA0fPo-2" target="njCDBM8VA2MCAohA0fPo-1">
          <mxGeometry width="50" height="50" relative="1" as="geometry">
            <mxPoint x="400" y="310" as="sourcePoint" />
            <mxPoint x="450" y="260" as="targetPoint" />
          </mxGeometry>
        </mxCell>
        <mxCell id="njCDBM8VA2MCAohA0fPo-4" value="" style="endArrow=none;html=1;rounded=0;exitX=0.5;exitY=1;exitDx=0;exitDy=0;entryX=0.5;entryY=0;entryDx=0;entryDy=0;" edge="1" source="njCDBM8VA2MCAohA0fPo-5" parent="1" target="njCDBM8VA2MCAohA0fPo-1">
          <mxGeometry width="50" height="50" relative="1" as="geometry">
            <mxPoint x="530" y="260" as="sourcePoint" />
            <mxPoint x="354" y="158" as="targetPoint" />
          </mxGeometry>
        </mxCell>
        <mxCell id="njCDBM8VA2MCAohA0fPo-5" value="&lt;font style=&quot;font-size: 20px;&quot;&gt;firstName&lt;/font&gt;" style="ellipse;whiteSpace=wrap;html=1;" vertex="1" parent="1">
          <mxGeometry x="60" y="60" width="100" height="40" as="geometry" />
        </mxCell>
        <mxCell id="njCDBM8VA2MCAohA0fPo-7" value="&lt;font style=&quot;font-size: 20px;&quot;&gt;lastName&lt;/font&gt;" style="ellipse;whiteSpace=wrap;html=1;" vertex="1" parent="1">
          <mxGeometry x="150" y="30" width="100" height="50" as="geometry" />
        </mxCell>
        <mxCell id="njCDBM8VA2MCAohA0fPo-8" value="" style="endArrow=none;html=1;rounded=0;exitX=0.5;exitY=1;exitDx=0;exitDy=0;" edge="1" source="njCDBM8VA2MCAohA0fPo-7" parent="1">
          <mxGeometry width="50" height="50" relative="1" as="geometry">
            <mxPoint x="640" y="250" as="sourcePoint" />
            <mxPoint x="230" y="210" as="targetPoint" />
          </mxGeometry>
        </mxCell>
        <mxCell id="njCDBM8VA2MCAohA0fPo-10" value="&lt;font style=&quot;font-size: 20px;&quot;&gt;password&lt;/font&gt;" style="ellipse;whiteSpace=wrap;html=1;" vertex="1" parent="1">
          <mxGeometry x="260" y="30" width="100" height="50" as="geometry" />
        </mxCell>
        <mxCell id="njCDBM8VA2MCAohA0fPo-11" value="" style="endArrow=none;html=1;rounded=0;exitX=0.5;exitY=1;exitDx=0;exitDy=0;entryX=0.5;entryY=0;entryDx=0;entryDy=0;" edge="1" source="njCDBM8VA2MCAohA0fPo-10" parent="1" target="njCDBM8VA2MCAohA0fPo-1">
          <mxGeometry width="50" height="50" relative="1" as="geometry">
            <mxPoint x="750" y="250" as="sourcePoint" />
            <mxPoint x="340" y="210" as="targetPoint" />
          </mxGeometry>
        </mxCell>
        <mxCell id="njCDBM8VA2MCAohA0fPo-12" value="&lt;font style=&quot;font-size: 20px;&quot;&gt;email&lt;/font&gt;" style="ellipse;whiteSpace=wrap;html=1;" vertex="1" parent="1">
          <mxGeometry x="310" y="80" width="100" height="50" as="geometry" />
        </mxCell>
        <mxCell id="njCDBM8VA2MCAohA0fPo-13" value="" style="endArrow=none;html=1;rounded=0;entryX=0.5;entryY=0;entryDx=0;entryDy=0;" edge="1" source="njCDBM8VA2MCAohA0fPo-12" parent="1" target="njCDBM8VA2MCAohA0fPo-1">
          <mxGeometry width="50" height="50" relative="1" as="geometry">
            <mxPoint x="800" y="300" as="sourcePoint" />
            <mxPoint x="280" y="260" as="targetPoint" />
          </mxGeometry>
        </mxCell>
        <mxCell id="njCDBM8VA2MCAohA0fPo-14" value="&lt;font style=&quot;font-size: 20px;&quot;&gt;phone no&lt;/font&gt;" style="ellipse;whiteSpace=wrap;html=1;" vertex="1" parent="1">
          <mxGeometry x="325" y="150" width="100" height="40" as="geometry" />
        </mxCell>
        <mxCell id="njCDBM8VA2MCAohA0fPo-15" value="" style="endArrow=none;html=1;rounded=0;" edge="1" source="njCDBM8VA2MCAohA0fPo-14" parent="1">
          <mxGeometry width="50" height="50" relative="1" as="geometry">
            <mxPoint x="815" y="370" as="sourcePoint" />
            <mxPoint x="230" y="210" as="targetPoint" />
          </mxGeometry>
        </mxCell>
        <mxCell id="njCDBM8VA2MCAohA0fPo-16" value="&lt;font style=&quot;font-size: 20px;&quot;&gt;&lt;u&gt;username&lt;/u&gt;&lt;/font&gt;" style="ellipse;whiteSpace=wrap;html=1;" vertex="1" parent="1">
          <mxGeometry x="18" y="150" width="102" height="40" as="geometry" />
        </mxCell>
        <mxCell id="njCDBM8VA2MCAohA0fPo-17" value="" style="endArrow=none;html=1;rounded=0;exitX=1;exitY=1;exitDx=0;exitDy=0;" edge="1" parent="1" source="njCDBM8VA2MCAohA0fPo-16">
          <mxGeometry width="50" height="50" relative="1" as="geometry">
            <mxPoint x="378" y="350" as="sourcePoint" />
            <mxPoint x="230" y="210" as="targetPoint" />
          </mxGeometry>
        </mxCell>
        <mxCell id="njCDBM8VA2MCAohA0fPo-18" value="&lt;font style=&quot;font-size: 20px;&quot;&gt;enable&lt;/font&gt;" style="ellipse;whiteSpace=wrap;html=1;" vertex="1" parent="1">
          <mxGeometry x="325" y="200" width="100" height="40" as="geometry" />
        </mxCell>
        <mxCell id="njCDBM8VA2MCAohA0fPo-19" value="" style="endArrow=none;html=1;rounded=0;entryX=1;entryY=0;entryDx=0;entryDy=0;" edge="1" source="njCDBM8VA2MCAohA0fPo-18" parent="1" target="njCDBM8VA2MCAohA0fPo-1">
          <mxGeometry width="50" height="50" relative="1" as="geometry">
            <mxPoint x="855" y="420" as="sourcePoint" />
            <mxPoint x="270" y="260" as="targetPoint" />
          </mxGeometry>
        </mxCell>
        <mxCell id="njCDBM8VA2MCAohA0fPo-36" style="edgeStyle=orthogonalEdgeStyle;rounded=0;orthogonalLoop=1;jettySize=auto;html=1;exitX=0.5;exitY=1;exitDx=0;exitDy=0;" edge="1" parent="1" source="njCDBM8VA2MCAohA0fPo-20" target="njCDBM8VA2MCAohA0fPo-35">
          <mxGeometry relative="1" as="geometry" />
        </mxCell>
        <mxCell id="njCDBM8VA2MCAohA0fPo-20" value="&lt;font style=&quot;font-size: 21px;&quot;&gt;ROLE&lt;/font&gt;" style="rounded=0;whiteSpace=wrap;html=1;" vertex="1" parent="1">
          <mxGeometry x="670" y="210" width="120" height="50" as="geometry" />
        </mxCell>
        <mxCell id="njCDBM8VA2MCAohA0fPo-21" value="&lt;font style=&quot;font-size: 20px;&quot;&gt;&lt;u&gt;roleID&lt;/u&gt;&lt;/font&gt;" style="ellipse;whiteSpace=wrap;html=1;" vertex="1" parent="1">
          <mxGeometry x="600" y="130" width="100" height="40" as="geometry" />
        </mxCell>
        <mxCell id="njCDBM8VA2MCAohA0fPo-22" value="" style="endArrow=none;html=1;rounded=0;entryX=0.5;entryY=0;entryDx=0;entryDy=0;" edge="1" source="njCDBM8VA2MCAohA0fPo-21" parent="1" target="njCDBM8VA2MCAohA0fPo-20">
          <mxGeometry width="50" height="50" relative="1" as="geometry">
            <mxPoint x="1225" y="325" as="sourcePoint" />
            <mxPoint x="660" y="115" as="targetPoint" />
          </mxGeometry>
        </mxCell>
        <mxCell id="njCDBM8VA2MCAohA0fPo-23" value="&lt;font style=&quot;font-size: 20px;&quot;&gt;roles&lt;/font&gt;" style="ellipse;whiteSpace=wrap;html=1;" vertex="1" parent="1">
          <mxGeometry x="720" y="120" width="100" height="40" as="geometry" />
        </mxCell>
        <mxCell id="njCDBM8VA2MCAohA0fPo-24" value="" style="endArrow=none;html=1;rounded=0;entryX=0.5;entryY=0;entryDx=0;entryDy=0;" edge="1" source="njCDBM8VA2MCAohA0fPo-23" parent="1" target="njCDBM8VA2MCAohA0fPo-20">
          <mxGeometry width="50" height="50" relative="1" as="geometry">
            <mxPoint x="1345" y="315" as="sourcePoint" />
            <mxPoint x="840" y="240" as="targetPoint" />
          </mxGeometry>
        </mxCell>
        <mxCell id="njCDBM8VA2MCAohA0fPo-25" value="&lt;span style=&quot;font-size: 21px;&quot;&gt;userRoles&lt;/span&gt;" style="rounded=0;whiteSpace=wrap;html=1;" vertex="1" parent="1">
          <mxGeometry x="400" y="450" width="120" height="60" as="geometry" />
        </mxCell>
        <mxCell id="njCDBM8VA2MCAohA0fPo-26" value="" style="endArrow=none;html=1;rounded=0;entryX=0.5;entryY=0;entryDx=0;entryDy=0;" edge="1" source="njCDBM8VA2MCAohA0fPo-29" target="njCDBM8VA2MCAohA0fPo-25" parent="1">
          <mxGeometry width="50" height="50" relative="1" as="geometry">
            <mxPoint x="965" y="525" as="sourcePoint" />
            <mxPoint x="400" y="315" as="targetPoint" />
          </mxGeometry>
        </mxCell>
        <mxCell id="njCDBM8VA2MCAohA0fPo-27" value="&lt;font style=&quot;font-size: 20px;&quot;&gt;userid&lt;/font&gt;" style="ellipse;whiteSpace=wrap;html=1;" vertex="1" parent="1">
          <mxGeometry x="470" y="280" width="100" height="40" as="geometry" />
        </mxCell>
        <mxCell id="njCDBM8VA2MCAohA0fPo-28" value="" style="endArrow=none;html=1;rounded=0;entryX=0.5;entryY=0;entryDx=0;entryDy=0;" edge="1" source="njCDBM8VA2MCAohA0fPo-27" target="njCDBM8VA2MCAohA0fPo-25" parent="1">
          <mxGeometry width="50" height="50" relative="1" as="geometry">
            <mxPoint x="1085" y="515" as="sourcePoint" />
            <mxPoint x="580" y="440" as="targetPoint" />
          </mxGeometry>
        </mxCell>
        <mxCell id="njCDBM8VA2MCAohA0fPo-29" value="&lt;font style=&quot;font-size: 20px;&quot;&gt;&lt;u&gt;roleID&lt;/u&gt;&lt;/font&gt;" style="ellipse;whiteSpace=wrap;html=1;" vertex="1" parent="1">
          <mxGeometry x="540" y="340" width="100" height="40" as="geometry" />
        </mxCell>
        <mxCell id="njCDBM8VA2MCAohA0fPo-30" value="&lt;font style=&quot;font-size: 20px;&quot;&gt;userRoleId&lt;/font&gt;" style="ellipse;whiteSpace=wrap;html=1;" vertex="1" parent="1">
          <mxGeometry x="350" y="280" width="110" height="40" as="geometry" />
        </mxCell>
        <mxCell id="njCDBM8VA2MCAohA0fPo-31" value="" style="endArrow=none;html=1;rounded=0;entryX=0.5;entryY=0;entryDx=0;entryDy=0;" edge="1" source="njCDBM8VA2MCAohA0fPo-30" parent="1" target="njCDBM8VA2MCAohA0fPo-25">
          <mxGeometry width="50" height="50" relative="1" as="geometry">
            <mxPoint x="975" y="515" as="sourcePoint" />
            <mxPoint x="350" y="450" as="targetPoint" />
          </mxGeometry>
        </mxCell>
        <mxCell id="njCDBM8VA2MCAohA0fPo-34" style="edgeStyle=orthogonalEdgeStyle;rounded=0;orthogonalLoop=1;jettySize=auto;html=1;exitX=1;exitY=0.5;exitDx=0;exitDy=0;entryX=0;entryY=0.5;entryDx=0;entryDy=0;" edge="1" parent="1" source="njCDBM8VA2MCAohA0fPo-32" target="njCDBM8VA2MCAohA0fPo-25">
          <mxGeometry relative="1" as="geometry" />
        </mxCell>
        <mxCell id="njCDBM8VA2MCAohA0fPo-32" value="HAS" style="rhombus;whiteSpace=wrap;html=1;" vertex="1" parent="1">
          <mxGeometry x="170" y="370" width="80" height="80" as="geometry" />
        </mxCell>
        <mxCell id="njCDBM8VA2MCAohA0fPo-35" value="HAS" style="rhombus;whiteSpace=wrap;html=1;" vertex="1" parent="1">
          <mxGeometry x="700" y="380" width="80" height="80" as="geometry" />
        </mxCell>
        <mxCell id="njCDBM8VA2MCAohA0fPo-38" value="1" style="text;html=1;align=center;verticalAlign=middle;resizable=0;points=[];autosize=1;strokeColor=none;fillColor=none;" vertex="1" parent="1">
          <mxGeometry x="230" y="270" width="30" height="30" as="geometry" />
        </mxCell>
        <mxCell id="njCDBM8VA2MCAohA0fPo-39" value="N" style="text;html=1;align=center;verticalAlign=middle;resizable=0;points=[];autosize=1;strokeColor=none;fillColor=none;" vertex="1" parent="1">
          <mxGeometry x="370" y="450" width="30" height="30" as="geometry" />
        </mxCell>
        <mxCell id="njCDBM8VA2MCAohA0fPo-41" value="" style="edgeStyle=orthogonalEdgeStyle;rounded=0;orthogonalLoop=1;jettySize=auto;html=1;exitX=0;exitY=0.5;exitDx=0;exitDy=0;entryX=1;entryY=0.5;entryDx=0;entryDy=0;" edge="1" parent="1" source="njCDBM8VA2MCAohA0fPo-35" target="njCDBM8VA2MCAohA0fPo-25">
          <mxGeometry relative="1" as="geometry">
            <mxPoint x="700" y="420" as="sourcePoint" />
            <mxPoint x="520" y="480" as="targetPoint" />
          </mxGeometry>
        </mxCell>
        <mxCell id="njCDBM8VA2MCAohA0fPo-40" value="N" style="text;html=1;align=center;verticalAlign=middle;resizable=0;points=[];autosize=1;strokeColor=none;fillColor=none;" vertex="1" parent="1">
          <mxGeometry x="520" y="450" width="30" height="30" as="geometry" />
        </mxCell>
        <mxCell id="njCDBM8VA2MCAohA0fPo-42" value="1" style="text;html=1;align=center;verticalAlign=middle;resizable=0;points=[];autosize=1;strokeColor=none;fillColor=none;" vertex="1" parent="1">
          <mxGeometry x="700" y="260" width="30" height="30" as="geometry" />
        </mxCell>
      </root>
    </mxGraphModel>
  </diagram>
</mxfile>
